<?xml version="1.0" encoding="UTF-8"?>
<svg width="30px" height="28px" viewBox="0 0 30 28" version="1.1" xmlns="http://www.w3.org/2000/svg" xmlns:xlink="http://www.w3.org/1999/xlink">
    <!-- Generator: Sketch 46.2 (44496) - http://www.bohemiancoding.com/sketch -->
    <title>star</title>
    <desc>Created with Sketch.</desc>
    <defs></defs>
    <g id="Page-1" stroke="none" stroke-width="1" fill="none" fill-rule="evenodd">
        <g id="00-My-countries" transform="translate(-958.000000, -376.000000)" fill="#FAC92F">
            <g id="Card" transform="translate(740.000000, 160.000000)">
                <path d="M234.020032,216.955315 L236.40651,224.277617 C236.670722,225.088834 237.429083,225.636762 238.283131,225.636762 L246.009552,225.636762 C247.353464,225.636762 247.913308,227.35028 246.825039,228.137303 L240.573922,232.663041 C239.882686,233.164003 239.594195,234.052072 239.858407,234.861866 L242.244885,242.184169 C242.660484,243.457922 241.198034,244.516774 240.111194,243.729751 L233.860076,239.204013 C233.16884,238.703051 232.231958,238.703051 231.540722,239.204013 L225.289604,243.729751 C224.202764,244.516774 222.738885,243.457922 223.154484,242.184169 L225.542391,234.861866 C225.806603,234.052072 225.516684,233.164003 224.825448,232.663041 L218.57433,228.137303 C217.48749,227.35028 218.045906,225.636762 219.389817,225.636762 L227.116239,225.636762 C227.971715,225.636762 228.728647,225.088834 228.992859,224.277617 L231.380766,216.955315 C231.796365,215.681562 233.604433,215.681562 234.020032,216.955315" id="star"></path>
            </g>
        </g>
    </g>
</svg>